<svg width="1400" height="1000" viewBox="0 0 1400 1000" fill="none" xmlns="http://www.w3.org/2000/svg">
  <defs>
    <linearGradient id="ext-sky" x1="700" y1="96" x2="700" y2="902" gradientUnits="userSpaceOnUse">
      <stop stop-color="#B5D0FF"/>
      <stop offset="1" stop-color="#244D89"/>
    </linearGradient>
  </defs>
  <rect width="1400" height="1000" fill="#07111F"/>
  <rect x="74" y="96" width="1252" height="808" rx="34" fill="url(#ext-sky)"/>
  <rect x="124" y="578" width="1152" height="246" rx="28" fill="#EFF6FF"/>
  <rect x="186" y="464" width="1028" height="164" rx="22" fill="#D8E7FC"/>
  <path d="M146 596L704 274L1254 596" stroke="#F6FBFF" stroke-width="26" stroke-linecap="round" stroke-linejoin="round"/>
  <path d="M202 598H1202" stroke="#5A82C5" stroke-width="18" stroke-linecap="round"/>
  <rect x="262" y="610" width="170" height="146" rx="16" fill="#95B8F8"/>
  <rect x="484" y="610" width="170" height="146" rx="16" fill="#95B8F8"/>
  <rect x="708" y="558" width="190" height="266" rx="18" fill="#17345D"/>
  <rect x="950" y="610" width="170" height="146" rx="16" fill="#95B8F8"/>
  <rect x="544" y="342" width="316" height="86" rx="18" fill="#F6FBFF"/>
  <rect x="1110" y="652" width="116" height="172" rx="14" fill="#1E477F"/>
</svg>
