<svg width="1400" height="1000" viewBox="0 0 1400 1000" fill="none" xmlns="http://www.w3.org/2000/svg">
  <defs>
    <linearGradient id="kitchen-bg" x1="72" y1="68" x2="1294" y2="942" gradientUnits="userSpaceOnUse">
      <stop stop-color="#EEF5FF"/>
      <stop offset="1" stop-color="#7398DD"/>
    </linearGradient>
  </defs>
  <rect width="1400" height="1000" fill="#08111E"/>
  <rect x="22" y="34" width="1356" height="932" rx="48" fill="url(#kitchen-bg)"/>
  <rect x="58" y="70" width="1284" height="860" rx="38" fill="#F9FCFF"/>
  <rect x="96" y="104" width="1210" height="374" rx="28" fill="#E5EEFB"/>
  <rect x="118" y="126" width="278" height="330" rx="22" fill="#6485C0"/>
  <rect x="426" y="126" width="278" height="330" rx="22" fill="#6C8BC1"/>
  <rect x="734" y="126" width="278" height="330" rx="22" fill="#6C8BC1"/>
  <rect x="1042" y="126" width="232" height="330" rx="22" fill="#D5E4F9"/>
  <rect x="132" y="514" width="1136" height="190" rx="32" fill="#FFFFFF"/>
  <rect x="430" y="734" width="540" height="102" rx="30" fill="#9FC2FF"/>
  <rect x="996" y="164" width="198" height="28" rx="14" fill="#FFFFFF"/>
  <circle cx="1102" cy="260" r="22" fill="#406AAE"/>
  <circle cx="1166" cy="260" r="22" fill="#406AAE"/>
  <circle cx="1230" cy="260" r="22" fill="#406AAE"/>
</svg>
